<svg xmlns="http://www.w3.org/2000/svg" width="1080" height="460" viewBox="0 0 1080 460" role="img" aria-labelledby="title desc">
<title id="title">Kafka Consumer Group 工作方式</title>
<desc id="desc">Kafka Consumer Group 工作方式</desc>
<defs><marker id="arrow" markerWidth="10" markerHeight="10" refX="8" refY="3" orient="auto"><path d="M0,0 L9,3 L0,6 Z" fill="#2563eb"/></marker><style>.bg{fill:#f8fafc}.node{fill:#fff;stroke:#cbd5e1;stroke-width:2;rx:10}.main{fill:#eff6ff;stroke:#2563eb;stroke-width:2;rx:10}.store{fill:#ecfdf5;stroke:#059669;stroke-width:2;rx:10}.warn{fill:#fff7ed;stroke:#ea580c;stroke-width:2;rx:10}.group{fill:#ffffff;stroke:#cbd5e1;stroke-width:2;stroke-dasharray:6 4;rx:12}.text{font-family:Arial,'PingFang SC','Microsoft YaHei',sans-serif;fill:#0f172a}.title{font-size:18px;font-weight:700}.body{font-size:13px;fill:#475569}.small{font-size:12px;fill:#64748b}.line{stroke:#2563eb;stroke-width:2.4;fill:none;marker-end:url(#arrow)}.dash{stroke:#94a3b8;stroke-width:1.5;stroke-dasharray:5 5}.msg{stroke:#2563eb;stroke-width:2;fill:none;marker-end:url(#arrow)}</style></defs>
<rect class="bg" width="1080" height="460"/>
<text class="text title" x="540" y="38" text-anchor="middle">Kafka Consumer Group 工作方式</text>
<rect class="group" x="90" y="70" width="210" height="290"/><text class="text small" x="106" y="94">Topic partitions</text>
<rect class="group" x="430" y="70" width="210" height="290"/><text class="text small" x="446" y="94">Consumer Group A</text>
<rect class="group" x="760" y="70" width="210" height="290"/><text class="text small" x="776" y="94">Consumer Group B</text>
<rect class="node" x="120" y="110" width="150" height="64"/><text class="text body" x="195" y="142" text-anchor="middle">Partition 0</text>
<rect class="node" x="120" y="200" width="150" height="64"/><text class="text body" x="195" y="232" text-anchor="middle">Partition 1</text>
<rect class="node" x="120" y="290" width="150" height="64"/><text class="text body" x="195" y="322" text-anchor="middle">Partition 2</text>
<rect class="store" x="460" y="120" width="150" height="64"/><text class="text body" x="535" y="152" text-anchor="middle">Consumer A1</text>
<rect class="store" x="460" y="260" width="150" height="64"/><text class="text body" x="535" y="292" text-anchor="middle">Consumer A2</text>
<rect class="store" x="790" y="190" width="150" height="64"/><text class="text body" x="865" y="222" text-anchor="middle">Consumer B1</text>
<path class="line" d="M270 142 L365 142 L365 152 L460 152"/>
<path class="line" d="M270 232 L365 232 L365 292 L460 292"/>
<path class="line" d="M270 322 L365 322 L365 152 L460 152"/>
<path class="line" d="M270 142 L530 142 L530 222 L790 222"/>
<path class="line" d="M270 232 L530 232 L530 222 L790 222"/>
<path class="line" d="M270 322 L530 322 L530 222 L790 222"/>
</svg>
