<svg xmlns="http://www.w3.org/2000/svg" width="1080" height="420" viewBox="0 0 1080 420" role="img" aria-labelledby="title desc">
<title id="title">订单超时关闭与支付成功发券</title>
<desc id="desc">订单超时关闭与支付成功发券</desc>
<defs><marker id="arrow" markerWidth="10" markerHeight="10" refX="8" refY="3" orient="auto"><path d="M0,0 L9,3 L0,6 Z" fill="#2563eb"/></marker><style>.bg{fill:#f8fafc}.node{fill:#fff;stroke:#cbd5e1;stroke-width:2;rx:10}.main{fill:#eff6ff;stroke:#2563eb;stroke-width:2;rx:10}.store{fill:#ecfdf5;stroke:#059669;stroke-width:2;rx:10}.warn{fill:#fff7ed;stroke:#ea580c;stroke-width:2;rx:10}.group{fill:#ffffff;stroke:#cbd5e1;stroke-width:2;stroke-dasharray:6 4;rx:12}.text{font-family:Arial,'PingFang SC','Microsoft YaHei',sans-serif;fill:#0f172a}.title{font-size:18px;font-weight:700}.body{font-size:13px;fill:#475569}.small{font-size:12px;fill:#64748b}.line{stroke:#2563eb;stroke-width:2.4;fill:none;marker-end:url(#arrow)}.dash{stroke:#94a3b8;stroke-width:1.5;stroke-dasharray:5 5}.msg{stroke:#2563eb;stroke-width:2;fill:none;marker-end:url(#arrow)}</style></defs>
<rect class="bg" width="1080" height="420"/>
<text class="text title" x="540" y="38" text-anchor="middle">订单超时关闭与支付成功发券</text>
<rect class="node" x="70" y="120" width="150" height="64"/><text class="text body" x="145" y="152" text-anchor="middle">订单服务</text>
<rect class="node" x="70" y="255" width="150" height="64"/><text class="text body" x="145" y="287" text-anchor="middle">支付服务</text>
<rect class="main" x="300" y="190" width="150" height="64"/><text class="text body" x="375" y="222" text-anchor="middle">MQ</text>
<rect class="node" x="535" y="120" width="150" height="64"/><text class="text body" x="610" y="152" text-anchor="middle">超时检查消费者</text>
<rect class="node" x="535" y="255" width="150" height="64"/><text class="text body" x="610" y="287" text-anchor="middle">发券消费者</text>
<rect class="store" x="780" y="120" width="150" height="64"/><text class="text body" x="855" y="152" text-anchor="middle">订单库</text>
<rect class="store" x="780" y="255" width="150" height="64"/><text class="text body" x="855" y="287" text-anchor="middle">券库</text>
<path class="line" d="M220 152 L260 152 L260 222 L300 222"/><text class="text small" x="260" y="179" text-anchor="middle">order.created</text>
<path class="line" d="M220 287 L260 287 L260 222 L300 222"/><text class="text small" x="260" y="246.5" text-anchor="middle">order.paid</text>
<path class="line" d="M450 222 L492.5 222 L492.5 152 L535 152"/>
<path class="line" d="M450 222 L492.5 222 L492.5 287 L535 287"/>
<path class="line" d="M685 152 L780 152"/>
<path class="line" d="M685 287 L780 287"/>
</svg>
