<svg xmlns="http://www.w3.org/2000/svg" width="1120" height="540" viewBox="0 0 1120 540" role="img" aria-labelledby="title desc">
<title id="title">Pulsar 架构组件</title>
<desc id="desc">Pulsar 架构组件</desc>
<defs><marker id="arrow" markerWidth="10" markerHeight="10" refX="8" refY="3" orient="auto"><path d="M0,0 L9,3 L0,6 Z" fill="#2563eb"/></marker><style>.bg{fill:#f8fafc}.node{fill:#fff;stroke:#cbd5e1;stroke-width:2}.main{fill:#eff6ff;stroke:#2563eb;stroke-width:2}.store{fill:#ecfdf5;stroke:#059669;stroke-width:2}.warn{fill:#fff7ed;stroke:#ea580c;stroke-width:2}.group{fill:#fff;stroke:#cbd5e1;stroke-width:2;stroke-dasharray:6 4}.text{font-family:Arial,'PingFang SC','Microsoft YaHei',sans-serif;fill:#0f172a}.title{font-size:18px;font-weight:700}.body{font-size:13px;fill:#475569}.small{font-size:12px;fill:#64748b}.line{stroke:#2563eb;stroke-width:2.4;fill:none;marker-end:url(#arrow)}.dash{stroke:#94a3b8;stroke-width:1.5;stroke-dasharray:5 5}</style></defs>
<rect class="bg" width="1120" height="540"/>
<text class="text title" x="560" y="38" text-anchor="middle">Pulsar 架构组件</text>
<rect class="group" x="60" y="70" width="210" height="310" rx="12"/><text class="text small" x="76" y="94">客户端</text>
<rect class="group" x="320" y="70" width="380" height="370" rx="12"/><text class="text small" x="336" y="94">服务层</text>
<rect class="group" x="790" y="70" width="210" height="310" rx="12"/><text class="text small" x="806" y="94">存储层</text>
<rect class="node" x="90" y="110" width="150" height="60" rx="10"/><text class="text body" x="165" y="145" text-anchor="middle">Producer</text>
<rect class="node" x="90" y="210" width="150" height="60" rx="10"/><text class="text body" x="165" y="245" text-anchor="middle">Consumer</text>
<rect class="node" x="90" y="310" width="150" height="60" rx="10"/><text class="text body" x="165" y="345" text-anchor="middle">Reader</text>
<rect class="node" x="350" y="210" width="180" height="64" rx="10"/><text class="text body" x="440" y="247" text-anchor="middle">Pulsar Proxy 可选</text>
<rect class="main" x="570" y="150" width="150" height="64" rx="10"/><text class="text body" x="645" y="187" text-anchor="middle">Broker 1</text>
<rect class="main" x="570" y="270" width="150" height="64" rx="10"/><text class="text body" x="645" y="307" text-anchor="middle">Broker 2</text>
<rect class="store" x="820" y="95" width="150" height="64" rx="10"/><text class="text body" x="895" y="132" text-anchor="middle">Bookie 1</text>
<rect class="store" x="820" y="210" width="150" height="64" rx="10"/><text class="text body" x="895" y="247" text-anchor="middle">Bookie 2</text>
<rect class="store" x="820" y="325" width="150" height="64" rx="10"/><text class="text body" x="895" y="362" text-anchor="middle">Bookie 3</text>
<rect class="store" x="570" y="410" width="170" height="64" rx="10"/><text class="text body" x="655" y="447" text-anchor="middle">Metadata Store</text>
<path class="line" d="M240 140 L350 242"/>
<path class="line" d="M240 240 L350 242"/>
<path class="line" d="M240 340 L350 242"/>
<path class="line" d="M530 242 L570 182"/>
<path class="line" d="M530 242 L570 302"/>
<path class="line" d="M720 182 L820 127"/>
<path class="line" d="M720 182 L820 242"/>
<path class="line" d="M720 302 L820 242"/>
<path class="line" d="M720 302 L820 357"/>
<path class="line" d="M645 214 L645 410"/>
<path class="line" d="M680 334 L680 410"/>
</svg>
