<svg xmlns="http://www.w3.org/2000/svg" width="980" height="420" viewBox="0 0 980 420" role="img" aria-labelledby="title desc">
<title id="title">Pulsar 分层存储</title>
<desc id="desc">Pulsar 分层存储</desc>
<defs><marker id="arrow" markerWidth="10" markerHeight="10" refX="8" refY="3" orient="auto"><path d="M0,0 L9,3 L0,6 Z" fill="#2563eb"/></marker><style>.bg{fill:#f8fafc}.node{fill:#fff;stroke:#cbd5e1;stroke-width:2}.main{fill:#eff6ff;stroke:#2563eb;stroke-width:2}.store{fill:#ecfdf5;stroke:#059669;stroke-width:2}.warn{fill:#fff7ed;stroke:#ea580c;stroke-width:2}.group{fill:#fff;stroke:#cbd5e1;stroke-width:2;stroke-dasharray:6 4}.text{font-family:Arial,'PingFang SC','Microsoft YaHei',sans-serif;fill:#0f172a}.title{font-size:18px;font-weight:700}.body{font-size:13px;fill:#475569}.small{font-size:12px;fill:#64748b}.line{stroke:#2563eb;stroke-width:2.4;fill:none;marker-end:url(#arrow)}.dash{stroke:#94a3b8;stroke-width:1.5;stroke-dasharray:5 5}</style></defs>
<rect class="bg" width="980" height="420"/>
<text class="text title" x="490" y="38" text-anchor="middle">Pulsar 分层存储</text>
<rect class="node" x="70" y="120" width="150" height="64" rx="10"/><text class="text body" x="145" y="157" text-anchor="middle">Producer</text>
<rect class="node" x="70" y="270" width="150" height="64" rx="10"/><text class="text body" x="145" y="307" text-anchor="middle">Consumer</text>
<rect class="main" x="340" y="195" width="150" height="64" rx="10"/><text class="text body" x="415" y="232" text-anchor="middle">Broker</text>
<rect class="store" x="610" y="120" width="200" height="64" rx="10"/><text class="text body" x="710" y="157" text-anchor="middle">BookKeeper 热数据</text>
<rect class="store" x="610" y="270" width="230" height="64" rx="10"/><text class="text body" x="725" y="298" text-anchor="middle">S3/GCS/Azure Blob</text><text class="text body" x="725" y="318" text-anchor="middle">冷数据</text>
<path class="line" d="M220 152 L340 227"/>
<path class="line" d="M490 227 L610 152"/>
<path class="line" d="M710 184 L710 270"/><text class="text small" x="750" y="230" text-anchor="middle">offload</text>
<path class="line" d="M220 302 L340 227"/>
<path class="line" d="M490 227 L610 302"/>
</svg>
