<svg xmlns="http://www.w3.org/2000/svg" width="980" height="400" viewBox="0 0 980 400" role="img" aria-labelledby="title desc">
<title id="title">Pulsar 多租户消息平台</title>
<desc id="desc">Pulsar 多租户消息平台</desc>
<defs><marker id="arrow" markerWidth="10" markerHeight="10" refX="8" refY="3" orient="auto"><path d="M0,0 L9,3 L0,6 Z" fill="#2563eb"/></marker><style>.bg{fill:#f8fafc}.node{fill:#fff;stroke:#cbd5e1;stroke-width:2}.main{fill:#eff6ff;stroke:#2563eb;stroke-width:2}.store{fill:#ecfdf5;stroke:#059669;stroke-width:2}.warn{fill:#fff7ed;stroke:#ea580c;stroke-width:2}.group{fill:#fff;stroke:#cbd5e1;stroke-width:2;stroke-dasharray:6 4}.text{font-family:Arial,'PingFang SC','Microsoft YaHei',sans-serif;fill:#0f172a}.title{font-size:18px;font-weight:700}.body{font-size:13px;fill:#475569}.small{font-size:12px;fill:#64748b}.line{stroke:#2563eb;stroke-width:2.4;fill:none;marker-end:url(#arrow)}.dash{stroke:#94a3b8;stroke-width:1.5;stroke-dasharray:5 5}</style></defs>
<rect class="bg" width="980" height="400"/>
<text class="text title" x="490" y="38" text-anchor="middle">Pulsar 多租户消息平台</text>
<rect class="node" x="70" y="105" width="150" height="64" rx="10"/><text class="text body" x="145" y="142" text-anchor="middle">Producer</text>
<rect class="node" x="70" y="235" width="150" height="64" rx="10"/><text class="text body" x="145" y="272" text-anchor="middle">Consumer</text>
<rect class="main" x="360" y="170" width="180" height="64" rx="10"/><text class="text body" x="450" y="207" text-anchor="middle">Pulsar Broker</text>
<rect class="store" x="650" y="105" width="190" height="64" rx="10"/><text class="text body" x="745" y="142" text-anchor="middle">BookKeeper Bookies</text>
<rect class="store" x="650" y="235" width="170" height="64" rx="10"/><text class="text body" x="735" y="272" text-anchor="middle">Metadata Store</text>
<rect class="node" x="360" y="300" width="220" height="64" rx="10"/><text class="text body" x="470" y="328" text-anchor="middle">Admin API /</text><text class="text body" x="470" y="348" text-anchor="middle">pulsar-admin</text>
<path class="line" d="M220 137 L360 202"/>
<path class="line" d="M220 267 L360 202"/>
<path class="line" d="M540 202 L650 137"/>
<path class="line" d="M540 202 L650 267"/>
<path class="line" d="M470 300 L470 234"/>
</svg>
