<svg xmlns="http://www.w3.org/2000/svg" width="1180" height="560" viewBox="0 0 1180 560" role="img" aria-labelledby="title desc">
<title id="title">RabbitMQ 订单超时与发券拓扑</title>
<desc id="desc">RabbitMQ 订单超时与发券拓扑</desc>
<defs><marker id="arrow" markerWidth="10" markerHeight="10" refX="8" refY="3" orient="auto"><path d="M0,0 L9,3 L0,6 Z" fill="#2563eb"/></marker><style>.bg{fill:#f8fafc}.node{fill:#fff;stroke:#cbd5e1;stroke-width:2;rx:10}.main{fill:#eff6ff;stroke:#2563eb;stroke-width:2;rx:10}.store{fill:#ecfdf5;stroke:#059669;stroke-width:2;rx:10}.warn{fill:#fff7ed;stroke:#ea580c;stroke-width:2;rx:10}.group{fill:#ffffff;stroke:#cbd5e1;stroke-width:2;stroke-dasharray:6 4;rx:12}.text{font-family:Arial,'PingFang SC','Microsoft YaHei',sans-serif;fill:#0f172a}.title{font-size:18px;font-weight:700}.body{font-size:13px;fill:#475569}.small{font-size:12px;fill:#64748b}.line{stroke:#2563eb;stroke-width:2.4;fill:none;marker-end:url(#arrow)}.dash{stroke:#94a3b8;stroke-width:1.5;stroke-dasharray:5 5}.msg{stroke:#2563eb;stroke-width:2;fill:none;marker-end:url(#arrow)}</style></defs>
<rect class="bg" width="1180" height="560"/>
<text class="text title" x="590" y="38" text-anchor="middle">RabbitMQ 订单超时与发券拓扑</text>
<rect class="node" x="40" y="100" width="150" height="64"/><text class="text body" x="115" y="132" text-anchor="middle">订单服务</text>
<rect class="node" x="40" y="230" width="150" height="64"/><text class="text body" x="115" y="262" text-anchor="middle">支付服务</text>
<rect class="main" x="270" y="165" width="210" height="64"/><text class="text body" x="375" y="188" text-anchor="middle">order.event.ex</text><text class="text body" x="375" y="208" text-anchor="middle">change topic</text>
<rect class="node" x="540" y="80" width="230" height="64"/><text class="text body" x="655" y="94" text-anchor="middle">order.timeout.</text><text class="text body" x="655" y="114" text-anchor="middle">delay.queue TT</text><text class="text body" x="655" y="134" text-anchor="middle">L 30m</text>
<rect class="node" x="540" y="190" width="220" height="64"/><text class="text body" x="650" y="213" text-anchor="middle">order.timeout.</text><text class="text body" x="650" y="233" text-anchor="middle">check.queue</text>
<rect class="node" x="820" y="190" width="170" height="64"/><text class="text body" x="905" y="222" text-anchor="middle">超时检查消费者</text>
<rect class="node" x="540" y="330" width="190" height="64"/><text class="text body" x="635" y="353" text-anchor="middle">coupon.issue.q</text><text class="text body" x="635" y="373" text-anchor="middle">ueue</text>
<rect class="node" x="820" y="330" width="150" height="64"/><text class="text body" x="895" y="362" text-anchor="middle">发券消费者</text>
<rect class="store" x="1000" y="190" width="150" height="64"/><text class="text body" x="1075" y="222" text-anchor="middle">订单库</text>
<rect class="store" x="1000" y="330" width="150" height="64"/><text class="text body" x="1075" y="362" text-anchor="middle">券库</text>
<rect class="warn" x="820" y="70" width="150" height="64"/><text class="text body" x="895" y="102" text-anchor="middle">timeout.dlq</text>
<rect class="warn" x="820" y="435" width="150" height="64"/><text class="text body" x="895" y="467" text-anchor="middle">coupon.dlq</text>
<path class="line" d="M190 132 L230 132 L230 197 L270 197"/><text class="text small" x="230" y="156.5" text-anchor="middle">order.created</text>
<path class="line" d="M190 262 L230 262 L230 197 L270 197"/><text class="text small" x="230" y="221.5" text-anchor="middle">order.paid</text>
<path class="line" d="M480 197 L510 197 L510 112 L540 112"/><text class="text small" x="510" y="146.5" text-anchor="middle">order.created</text>
<path class="line" d="M770 112 L655 112 L655 222 L540 222"/><text class="text small" x="655" y="159" text-anchor="middle">DLX 到期</text>
<path class="line" d="M760 222 L820 222"/>
<path class="line" d="M990 222 L1000 222"/>
<path class="line" d="M480 197 L510 197 L510 362 L540 362"/><text class="text small" x="510" y="271.5" text-anchor="middle">order.paid</text>
<path class="line" d="M730 362 L820 362"/>
<path class="line" d="M970 362 L1000 362"/>
<path class="line" d="M760 222 L790 222 L790 102 L820 102"/>
<path class="line" d="M730 362 L775 362 L775 467 L820 467"/>
</svg>
