<svg xmlns="http://www.w3.org/2000/svg" width="1180" height="600" viewBox="0 0 1180 600" role="img" aria-labelledby="title desc">
<title id="title">RabbitMQ 订单超时与发券拓扑</title>
<desc id="desc">RabbitMQ 订单超时与发券拓扑</desc>
<defs><marker id="arrow" markerWidth="10" markerHeight="10" refX="8" refY="3" orient="auto"><path d="M0,0 L9,3 L0,6 Z" fill="#2563eb"/></marker><style>.bg{fill:#f8fafc}.node{fill:#fff;stroke:#cbd5e1;stroke-width:2}.main{fill:#eff6ff;stroke:#2563eb;stroke-width:2}.store{fill:#ecfdf5;stroke:#059669;stroke-width:2}.warn{fill:#fff7ed;stroke:#ea580c;stroke-width:2}.text{font-family:Arial,'PingFang SC','Microsoft YaHei',sans-serif;fill:#0f172a}.title{font-size:18px;font-weight:700}.body{font-size:13px;fill:#475569}.small{font-size:12px;fill:#64748b}.line{stroke:#2563eb;stroke-width:2.4;fill:none;marker-end:url(#arrow)}</style></defs>
<rect class="bg" width="1180" height="600"/>
<text class="text title" x="590" y="38" text-anchor="middle">RabbitMQ 订单超时与发券拓扑</text>
<rect class="node" x="40" y="110" width="150" height="64" rx="10"/><text class="text body" x="115" y="147" text-anchor="middle">订单服务</text>
<rect class="node" x="40" y="250" width="150" height="64" rx="10"/><text class="text body" x="115" y="287" text-anchor="middle">支付服务</text>
<rect class="main" x="270" y="180" width="230" height="70" rx="10"/><text class="text body" x="385" y="211" text-anchor="middle">order.event.exchange</text><text class="text body" x="385" y="231" text-anchor="middle">topic</text>
<rect class="warn" x="560" y="80" width="250" height="64" rx="10"/><text class="text body" x="685" y="108" text-anchor="middle">order.timeout.delay.queue</text><text class="text body" x="685" y="128" text-anchor="middle">TTL 30m</text>
<rect class="node" x="560" y="200" width="240" height="64" rx="10"/><text class="text body" x="680" y="237" text-anchor="middle">order.timeout.check.queue</text>
<rect class="node" x="850" y="200" width="170" height="64" rx="10"/><text class="text body" x="935" y="237" text-anchor="middle">超时检查消费者</text>
<rect class="store" x="1040" y="200" width="110" height="64" rx="10"/><text class="text body" x="1095" y="237" text-anchor="middle">订单库</text>
<rect class="node" x="560" y="350" width="210" height="64" rx="10"/><text class="text body" x="665" y="387" text-anchor="middle">coupon.issue.queue</text>
<rect class="node" x="850" y="350" width="150" height="64" rx="10"/><text class="text body" x="925" y="387" text-anchor="middle">发券消费者</text>
<rect class="store" x="1040" y="350" width="110" height="64" rx="10"/><text class="text body" x="1095" y="387" text-anchor="middle">券库</text>
<rect class="warn" x="850" y="80" width="150" height="64" rx="10"/><text class="text body" x="925" y="117" text-anchor="middle">timeout.dlq</text>
<rect class="warn" x="850" y="465" width="150" height="64" rx="10"/><text class="text body" x="925" y="502" text-anchor="middle">coupon.dlq</text>
<path class="line" d="M190 142 L270 205"/><text class="text small" x="230" y="160" text-anchor="middle">order.created</text>
<path class="line" d="M190 282 L270 225"/><text class="text small" x="230" y="270" text-anchor="middle">order.paid</text>
<path class="line" d="M500 205 L560 112"/><text class="text small" x="535" y="145" text-anchor="middle">order.created</text>
<path class="line" d="M685 144 L685 200"/><text class="text small" x="735" y="177" text-anchor="middle">DLX 到期</text>
<path class="line" d="M800 232 L850 232"/>
<path class="line" d="M1020 232 L1040 232"/>
<path class="line" d="M500 225 L560 382"/><text class="text small" x="535" y="310" text-anchor="middle">order.paid</text>
<path class="line" d="M770 382 L850 382"/>
<path class="line" d="M1000 382 L1040 382"/>
<path class="line" d="M935 200 L935 144"/><text class="text small" x="985" y="175" text-anchor="middle">失败死信</text>
<path class="line" d="M925 414 L925 465"/><text class="text small" x="985" y="445" text-anchor="middle">失败死信</text>
</svg>
