<svg xmlns="http://www.w3.org/2000/svg" width="980" height="380" viewBox="0 0 980 380" role="img" aria-labelledby="title desc">
<title id="title">RocketMQ 路由发现与消息投递</title>
<desc id="desc">RocketMQ 路由发现与消息投递</desc>
<defs><marker id="arrow" markerWidth="10" markerHeight="10" refX="8" refY="3" orient="auto"><path d="M0,0 L9,3 L0,6 Z" fill="#2563eb"/></marker><style>.bg{fill:#f8fafc}.node{fill:#fff;stroke:#cbd5e1;stroke-width:2;rx:10}.main{fill:#eff6ff;stroke:#2563eb;stroke-width:2;rx:10}.store{fill:#ecfdf5;stroke:#059669;stroke-width:2;rx:10}.warn{fill:#fff7ed;stroke:#ea580c;stroke-width:2;rx:10}.group{fill:#ffffff;stroke:#cbd5e1;stroke-width:2;stroke-dasharray:6 4;rx:12}.text{font-family:Arial,'PingFang SC','Microsoft YaHei',sans-serif;fill:#0f172a}.title{font-size:18px;font-weight:700}.body{font-size:13px;fill:#475569}.small{font-size:12px;fill:#64748b}.line{stroke:#2563eb;stroke-width:2.4;fill:none;marker-end:url(#arrow)}.dash{stroke:#94a3b8;stroke-width:1.5;stroke-dasharray:5 5}.msg{stroke:#2563eb;stroke-width:2;fill:none;marker-end:url(#arrow)}</style></defs>
<rect class="bg" width="980" height="380"/>
<text class="text title" x="490" y="38" text-anchor="middle">RocketMQ 路由发现与消息投递</text>
<rect class="node" x="70" y="120" width="150" height="64"/><text class="text body" x="145" y="152" text-anchor="middle">Producer</text>
<rect class="node" x="70" y="235" width="150" height="64"/><text class="text body" x="145" y="267" text-anchor="middle">Consumer</text>
<rect class="main" x="330" y="175" width="150" height="64"/><text class="text body" x="405" y="207" text-anchor="middle">NameServer</text>
<rect class="store" x="600" y="120" width="150" height="64"/><text class="text body" x="675" y="152" text-anchor="middle">Broker Master</text>
<rect class="store" x="600" y="235" width="150" height="64"/><text class="text body" x="675" y="267" text-anchor="middle">Broker Slave</text>
<path class="line" d="M220 152 L275 152 L275 207 L330 207"/><text class="text small" x="275" y="171.5" text-anchor="middle">查询路由</text>
<path class="line" d="M220 267 L275 267 L275 207 L330 207"/><text class="text small" x="275" y="229" text-anchor="middle">查询路由</text>
<path class="line" d="M220 152 L600 152"/><text class="text small" x="410" y="144" text-anchor="middle">发送消息</text>
<path class="line" d="M750 152 L675 152 L675 267 L600 267"/><text class="text small" x="675" y="201.5" text-anchor="middle">复制</text>
<path class="line" d="M750 152 L410 152 L410 267 L70 267"/><text class="text small" x="410" y="201.5" text-anchor="middle">投递消息</text>
</svg>
