<svg xmlns="http://www.w3.org/2000/svg" width="880" height="390" viewBox="0 0 880 390" role="img" aria-labelledby="title desc">
<title id="title">RocketMQ Topic 与 Queue</title>
<desc id="desc">RocketMQ Topic 与 Queue</desc>
<defs><marker id="arrow" markerWidth="10" markerHeight="10" refX="8" refY="3" orient="auto"><path d="M0,0 L9,3 L0,6 Z" fill="#2563eb"/></marker><style>.bg{fill:#f8fafc}.node{fill:#fff;stroke:#cbd5e1;stroke-width:2;rx:10}.main{fill:#eff6ff;stroke:#2563eb;stroke-width:2;rx:10}.store{fill:#ecfdf5;stroke:#059669;stroke-width:2;rx:10}.warn{fill:#fff7ed;stroke:#ea580c;stroke-width:2;rx:10}.group{fill:#ffffff;stroke:#cbd5e1;stroke-width:2;stroke-dasharray:6 4;rx:12}.text{font-family:Arial,'PingFang SC','Microsoft YaHei',sans-serif;fill:#0f172a}.title{font-size:18px;font-weight:700}.body{font-size:13px;fill:#475569}.small{font-size:12px;fill:#64748b}.line{stroke:#2563eb;stroke-width:2.4;fill:none;marker-end:url(#arrow)}.dash{stroke:#94a3b8;stroke-width:1.5;stroke-dasharray:5 5}.msg{stroke:#2563eb;stroke-width:2;fill:none;marker-end:url(#arrow)}</style></defs>
<rect class="bg" width="880" height="390"/>
<text class="text title" x="440" y="38" text-anchor="middle">RocketMQ Topic 与 Queue</text>
<rect class="main" x="80" y="165" width="150" height="64"/><text class="text body" x="155" y="188" text-anchor="middle">Topic: order-t</text><text class="text body" x="155" y="208" text-anchor="middle">opic</text>
<rect class="node" x="350" y="80" width="150" height="64"/><text class="text body" x="425" y="112" text-anchor="middle">Queue 0</text>
<rect class="node" x="350" y="165" width="150" height="64"/><text class="text body" x="425" y="197" text-anchor="middle">Queue 1</text>
<rect class="node" x="350" y="250" width="150" height="64"/><text class="text body" x="425" y="282" text-anchor="middle">Queue 2</text>
<rect class="store" x="590" y="80" width="150" height="64"/><text class="text body" x="665" y="112" text-anchor="middle">Broker A</text>
<rect class="store" x="590" y="165" width="150" height="64"/><text class="text body" x="665" y="197" text-anchor="middle">Broker B</text>
<rect class="store" x="590" y="250" width="150" height="64"/><text class="text body" x="665" y="282" text-anchor="middle">Broker C</text>
<path class="line" d="M230 197 L290 197 L290 112 L350 112"/>
<path class="line" d="M230 197 L350 197"/>
<path class="line" d="M230 197 L290 197 L290 282 L350 282"/>
<path class="line" d="M500 112 L590 112"/>
<path class="line" d="M500 197 L590 197"/>
<path class="line" d="M500 282 L590 282"/>
</svg>
