<svg xmlns="http://www.w3.org/2000/svg" width="1040" height="520" viewBox="0 0 1040 520" role="img" aria-labelledby="title desc"><title id="title">抽象工厂模式结构图</title><desc id="desc">展示抽象工厂创建一组相关产品，具体工厂对应具体产品族。</desc><style>.bg{fill:#f8fafc}.abs{fill:#e0f2fe;stroke:#0284c7}.impl{fill:#fff;stroke:#94a3b8}.box{stroke-width:2;rx:14}.t{font:700 19px Arial,'Microsoft YaHei',sans-serif;fill:#0f172a}.s{font:14px Arial,'Microsoft YaHei',sans-serif;fill:#334155}.line{stroke:#64748b;stroke-width:2;fill:none}.arrow{fill:#64748b}</style><rect class="bg" width="1040" height="520" rx="22"/><text class="t" x="48" y="52">抽象工厂：一次创建一组风格一致的产品族</text><rect class="box abs" x="90" y="145" width="230" height="120" rx="14"/><text class="t" x="138" y="185">GUIFactory</text><text class="s" x="122" y="216">createButton()</text><text class="s" x="122" y="242">createInput()</text><rect class="box impl" x="430" y="90" width="210" height="80" rx="14"/><text class="t" x="468" y="138">WindowsFactory</text><rect class="box impl" x="430" y="250" width="210" height="80" rx="14"/><text class="t" x="486" y="298">MacFactory</text><rect class="box impl" x="760" y="80" width="210" height="70" rx="14"/><text class="s" x="805" y="122">WindowsButton</text><rect class="box impl" x="760" y="165" width="210" height="70" rx="14"/><text class="s" x="810" y="207">WindowsInput</text><rect class="box impl" x="760" y="280" width="210" height="70" rx="14"/><text class="s" x="825" y="322">MacButton</text><rect class="box impl" x="760" y="365" width="210" height="70" rx="14"/><text class="s" x="830" y="407">MacInput</text><path class="line" d="M320 205H430"/><polygon class="arrow" points="430,205 417,197 417,213"/><path class="line" d="M640 130H760M640 130Q700 130 760 200M640 290H760M640 290Q700 290 760 400"/></svg>
