<svg xmlns="http://www.w3.org/2000/svg" width="1040" height="520" viewBox="0 0 1040 520" role="img" aria-labelledby="title desc"><title id="title">中介者模式结构图</title><desc id="desc">展示多个对象不直接互相调用，而是通过中介者协调交互。</desc><style>.bg{fill:#f8fafc}.med{fill:#e0f2fe;stroke:#0284c7}.col{fill:#fff;stroke:#94a3b8}.box{stroke-width:2;rx:14}.t{font:700 19px Arial,'Microsoft YaHei',sans-serif;fill:#0f172a}.s{font:14px Arial,'Microsoft YaHei',sans-serif;fill:#334155}.line{stroke:#64748b;stroke-width:2;fill:none}.arrow{fill:#64748b}</style><rect class="bg" width="1040" height="520" rx="22"/><text class="t" x="48" y="52">中介者：把网状交互收敛到协调中心</text><rect class="box med" x="410" y="190" width="240" height="105" rx="14"/><text class="t" x="480" y="232">Mediator</text><text class="s" x="462" y="260">协调同事对象交互</text><rect class="box col" x="120" y="95" width="190" height="70" rx="14"/><text class="s" x="178" y="137">控件 A</text><rect class="box col" x="720" y="95" width="190" height="70" rx="14"/><text class="s" x="778" y="137">控件 B</text><rect class="box col" x="120" y="330" width="190" height="70" rx="14"/><text class="s" x="178" y="372">控件 C</text><rect class="box col" x="720" y="330" width="190" height="70" rx="14"/><text class="s" x="778" y="372">控件 D</text><path class="line" d="M310 130L410 220M720 130L650 220M310 365L410 265M720 365L650 265"/></svg>
